<?xml version="1.0" standalone="no"?>
<!DOCTYPE svg PUBLIC "-//W3C//DTD SVG 20010904//EN"
 "http://www.w3.org/TR/2001/REC-SVG-20010904/DTD/svg10.dtd">
<svg version="1.0" xmlns="http://www.w3.org/2000/svg"
 width="512.000000pt" height="512.000000pt" viewBox="0 0 512.000000 512.000000"
 preserveAspectRatio="xMidYMid meet">
<metadata>
Created by potrace 1.14, written by Peter Selinger 2001-2017
</metadata>
<g transform="translate(0.000000,512.000000) scale(0.100000,-0.100000)"
fill="#000000" stroke="none">
<path d="M835 4441 c-3 -5 -2 -12 3 -15 5 -3 9 1 9 9 0 17 -3 19 -12 6z"/>
<path d="M1173 4435 c0 -8 4 -12 9 -9 5 3 6 10 3 15 -9 13 -12 11 -12 -6z"/>
<path d="M1567 4439 c7 -7 15 -10 18 -7 3 3 -2 9 -12 12 -14 6 -15 5 -6 -5z"/>
<path d="M1654 4442 c10 -16 -30 -34 -64 -28 -21 3 -28 1 -24 -7 3 -7 -1 -4
-9 6 -13 16 -15 16 -21 2 -4 -11 -2 -14 7 -9 9 5 8 3 -1 -7 -11 -12 -14 -12
-22 1 -5 8 -10 11 -10 6 0 -4 -11 -1 -25 8 -21 14 -24 14 -19 1 4 -8 11 -15
17 -15 6 0 7 -3 4 -7 -4 -3 -16 2 -27 12 -11 10 -20 14 -20 9 0 -5 -4 -3 -9 5
-8 12 -12 12 -25 2 -9 -7 -25 -11 -36 -8 -17 4 -20 2 -15 -16 4 -12 3 -17 -2
-12 -4 6 -17 11 -28 11 -11 0 -23 -5 -27 -11 -5 -6 -8 -5 -8 3 0 7 -4 10 -10
7 -5 -3 -10 -1 -10 4 0 18 -28 12 -34 -6 -3 -12 -4 -11 -3 4 1 12 -2 21 -8 20
-5 -1 -9 -7 -9 -13 1 -6 -5 -11 -13 -11 -8 0 -12 5 -10 12 3 7 -6 10 -25 9
-17 -1 -32 4 -35 12 -3 9 -10 11 -21 5 -10 -4 -23 -6 -29 -4 -7 3 -13 0 -13
-5 0 -15 -54 -9 -68 8 -11 12 -11 11 -1 -10 6 -14 8 -22 4 -18 -5 4 -14 3 -20
-2 -25 -21 -71 -1 -48 20 4 3 4 0 0 -5 -7 -13 40 -18 48 -6 3 5 1 12 -4 15 -5
4 -13 1 -17 -5 -4 -8 -9 -7 -15 2 -6 11 -11 11 -21 1 -6 -6 -18 -12 -26 -12
-12 0 -12 3 -1 18 13 15 12 16 -3 4 -9 -8 -22 -11 -27 -7 -7 3 -8 0 -5 -9 3
-9 9 -14 13 -12 4 3 13 0 21 -6 12 -8 11 -9 -4 -4 -13 5 -17 2 -13 -8 6 -15
-9 -16 -32 -2 -10 7 -12 3 -6 -15 3 -13 3 -19 -2 -14 -11 13 -33 17 -33 6 0
-5 -7 -11 -14 -14 -10 -4 -13 -1 -9 9 5 13 17 18 36 15 10 -1 9 11 -3 29 -8
13 -10 12 -10 -3 0 -10 -4 -16 -9 -13 -12 8 -30 -37 -27 -68 2 -15 -1 -29 -6
-32 -6 -4 -5 -10 3 -16 11 -8 11 -9 -1 -5 -8 2 -14 10 -13 16 4 17 -14 13 -21
-5 -3 -8 -2 -13 3 -10 5 3 12 -1 15 -10 3 -9 11 -12 18 -8 10 5 10 4 1 -6 -9
-10 -16 -10 -26 -2 -11 9 -14 8 -14 -3 0 -8 3 -12 7 -10 4 2 12 -6 18 -19 13
-28 -6 -43 -29 -23 -11 10 -11 9 0 -5 7 -9 19 -14 27 -11 8 3 14 0 14 -6 0 -6
-6 -11 -14 -11 -10 0 -12 -7 -8 -22 5 -20 3 -21 -10 -10 -11 9 -18 10 -23 2
-4 -6 -3 -9 2 -8 4 2 19 -5 32 -14 24 -17 24 -48 0 -48 -8 0 -7 5 2 17 8 9 9
14 2 10 -6 -4 -14 -1 -17 5 -3 7 -3 0 0 -17 3 -16 6 -36 6 -42 1 -7 3 -11 6
-9 2 3 10 -1 17 -7 10 -10 7 -16 -14 -31 -14 -10 -19 -16 -10 -13 9 3 22 1 30
-4 11 -7 9 -9 -7 -9 -12 0 -25 -7 -28 -16 -3 -8 -2 -12 4 -9 6 3 10 2 10 -4 0
-5 -5 -12 -10 -14 -6 -3 -5 -4 2 -3 7 2 13 10 12 18 -1 7 8 15 20 16 17 1 18
-1 6 -8 -8 -5 -10 -10 -5 -10 6 0 -3 -10 -20 -21 -16 -12 -23 -19 -14 -16 9 3
22 1 30 -4 11 -7 9 -9 -7 -9 -23 0 -40 -25 -24 -35 14 -9 12 -45 -2 -45 -7 0
-5 -5 5 -11 12 -7 15 -15 9 -22 -6 -7 -6 -20 -1 -32 9 -18 9 -18 5 3 -5 27 9
20 17 -8 3 -11 1 -18 -4 -14 -14 8 -11 -9 7 -35 16 -22 16 -22 -4 -10 -11 7
-20 17 -19 22 1 5 -5 12 -13 14 -9 3 -11 1 -5 -4 14 -11 15 -57 1 -65 -7 -5
-6 -8 4 -8 13 0 13 -1 0 -10 -11 -8 -8 -9 13 -6 15 3 25 1 22 -5 -4 -5 -13 -9
-20 -9 -12 0 -12 -6 -5 -27 9 -26 9 -27 -5 -9 -8 11 -15 15 -15 8 0 -6 8 -17
18 -24 10 -7 22 -20 27 -28 7 -11 2 -10 -20 4 -17 10 -24 13 -17 5 6 -7 12
-21 12 -31 0 -10 -6 -18 -12 -18 -7 0 -5 -5 5 -11 12 -7 15 -15 9 -22 -6 -7
-6 -20 -1 -32 9 -18 9 -18 5 3 -5 27 9 20 17 -8 3 -11 1 -18 -4 -14 -14 8 -11
-9 7 -35 16 -22 16 -22 -4 -10 -11 7 -20 17 -19 22 1 5 -5 12 -13 14 -9 3 -11
1 -5 -4 14 -11 15 -57 1 -65 -7 -5 -6 -8 4 -8 13 0 13 -1 0 -10 -11 -8 -8 -9
13 -6 15 3 25 1 22 -5 -4 -5 -13 -9 -20 -9 -12 0 -12 -6 -5 -27 9 -26 9 -27
-5 -9 -8 11 -15 15 -15 8 0 -6 9 -17 20 -25 11 -8 17 -17 13 -20 -3 -4 -13 -1
-22 6 -13 10 -14 10 -5 -3 12 -18 12 -30 0 -49 -6 -10 -6 -12 3 -7 15 10 11
-25 -4 -36 -6 -5 -5 -8 3 -8 7 0 10 -5 7 -11 -8 -12 24 -51 35 -44 4 3 14 -3
21 -13 11 -14 11 -15 0 -5 -11 9 -19 8 -37 -4 -18 -11 -24 -12 -24 -2 0 7 -3
10 -6 7 -3 -4 0 -16 6 -29 11 -20 10 -21 -6 -15 -18 6 -18 5 -2 -7 12 -9 14
-17 8 -25 -6 -7 -7 -10 -4 -7 4 2 13 -3 21 -11 8 -8 19 -12 24 -9 5 4 9 1 9
-4 0 -13 -42 -10 -53 4 -4 6 -5 -3 -3 -19 6 -34 12 -41 21 -27 3 6 1 11 -5 11
-6 0 -8 5 -4 11 13 21 27 -7 14 -30 -22 -41 -19 -99 6 -128 24 -28 22 -53 -5
-53 -14 1 -14 2 2 11 9 6 15 15 11 21 -4 7 -10 5 -16 -3 -7 -11 -8 -10 -4 4 3
10 2 15 -4 12 -5 -3 -8 -16 -6 -28 2 -12 -2 -28 -8 -36 -8 -12 -8 -13 2 -7 16
10 13 -25 -3 -36 -6 -5 -5 -8 2 -8 7 0 10 -6 7 -14 -3 -8 0 -17 5 -21 6 -3 8
-11 5 -17 -4 -7 -2 -8 4 -4 7 4 12 2 12 -3 0 -6 -6 -11 -14 -11 -10 0 -12 -7
-8 -22 5 -20 3 -21 -10 -10 -11 9 -18 10 -23 2 -4 -6 -3 -9 2 -8 4 2 19 -5 32
-14 24 -17 24 -48 0 -48 -8 0 -7 5 2 17 8 9 9 14 2 10 -6 -4 -14 -1 -17 5 -3
7 -3 0 0 -17 3 -16 6 -36 6 -43 1 -6 3 -10 6 -8 2 3 10 -1 17 -7 10 -10 7 -16
-14 -31 -14 -10 -19 -16 -10 -13 9 3 22 1 30 -4 11 -7 9 -9 -7 -9 -12 0 -25
-7 -28 -16 -3 -8 -2 -12 4 -9 6 3 10 2 10 -4 0 -5 -5 -12 -10 -14 -6 -3 -5 -4
2 -3 7 2 13 10 12 18 -1 7 8 15 20 16 17 1 18 -1 6 -8 -8 -5 -10 -10 -5 -10 6
0 -3 -10 -20 -21 -16 -12 -23 -19 -14 -16 9 3 22 1 30 -4 11 -7 9 -9 -8 -9
-13 0 -24 -6 -25 -12 0 -7 -2 -20 -3 -28 -1 -8 4 -27 11 -41 7 -15 10 -29 7
-33 -4 -3 -1 -6 5 -6 7 0 12 -5 12 -11 0 -6 -9 -8 -22 -4 -16 4 -19 3 -10 -3
8 -5 13 -15 12 -23 -5 -31 0 -41 18 -35 14 5 14 4 -2 -9 -16 -12 -22 -12 -28
-2 -12 19 -10 -2 3 -25 10 -18 9 -20 -7 -14 -18 6 -18 5 -2 -7 10 -8 14 -18
10 -23 -4 -5 -6 -8 -3 -7 2 1 10 -5 18 -13 8 -8 19 -12 24 -9 5 4 9 1 9 -4 0
-13 -42 -10 -53 4 -7 10 -5 -5 9 -68 5 -19 2 -27 -7 -27 -9 -1 -8 -4 4 -11 12
-7 15 -15 9 -22 -6 -7 -6 -20 -1 -32 9 -18 9 -18 5 3 -5 27 9 20 17 -8 3 -11
1 -18 -4 -14 -14 8 -11 -9 7 -35 16 -22 16 -22 -4 -10 -11 7 -20 17 -19 22 1
5 -5 12 -13 14 -9 3 -11 1 -5 -4 14 -11 15 -57 1 -65 -7 -5 -6 -8 4 -8 13 0
13 -1 0 -10 -11 -8 -8 -9 13 -6 15 3 25 1 22 -5 -4 -5 -13 -9 -20 -9 -12 0
-12 -6 -5 -27 9 -26 9 -27 -5 -9 -8 11 -15 15 -15 8 0 -6 8 -17 17 -24 10 -7
25 -22 33 -33 12 -16 9 -15 -19 5 -19 13 -31 17 -26 9 14 -22 15 -43 2 -51 -9
-6 -8 -8 3 -8 13 0 13 -1 0 -10 -11 -8 -8 -9 13 -6 15 3 25 1 22 -5 -4 -5 -12
-9 -20 -9 -9 0 -11 -7 -7 -22 5 -21 4 -22 -14 -9 -10 7 -4 0 14 -17 21 -19 29
-32 23 -37 -6 -3 -9 -11 -5 -16 3 -5 9 -7 14 -4 4 3 7 -3 6 -12 -2 -10 -11
-19 -22 -20 -18 -3 -18 -2 -1 5 17 7 17 9 -2 26 -12 11 -24 16 -28 13 -3 -4
-1 -7 5 -7 14 0 12 -49 -2 -69 -9 -12 -8 -13 3 -6 11 6 13 3 9 -13 -4 -12 -2
-20 3 -16 5 3 9 1 9 -5 0 -5 -8 -14 -17 -20 -16 -9 -16 -10 4 -8 12 0 20 4 18
7 -2 3 6 6 18 7 12 0 16 -1 9 -4 -6 -3 -9 -10 -6 -15 4 -7 2 -8 -4 -4 -7 4
-12 3 -12 -3 0 -6 -8 -8 -17 -5 -15 5 -15 4 -3 -4 8 -6 18 -8 23 -5 5 3 6 -5
2 -18 -7 -21 -6 -22 9 -10 9 8 19 11 23 7 3 -3 1 -6 -5 -6 -7 0 -12 -6 -12
-14 0 -8 -6 -16 -12 -19 -7 -3 -3 -4 10 -4 16 1 21 6 17 17 -3 10 0 8 10 -4
11 -14 12 -24 4 -39 -8 -13 -8 -17 -1 -13 6 4 15 -1 20 -10 8 -15 10 -15 15 0
4 9 3 15 -1 13 -4 -1 -8 1 -10 6 -2 7 0 7 31 -1 16 -4 16 -5 1 -17 -14 -9 -14
-14 -4 -20 9 -5 11 -4 6 3 -5 8 0 12 12 12 15 0 19 5 16 23 -4 20 -4 20 4 2 5
-11 7 -27 5 -35 -4 -13 -3 -13 9 0 15 18 52 15 41 -3 -5 -9 -3 -9 8 -1 8 6 22
10 32 9 9 -2 15 1 11 6 -3 5 -10 7 -15 4 -5 -3 -6 1 -2 10 4 13 8 14 14 4 16
-26 107 -28 126 -3 7 10 13 13 13 5 0 -7 5 -9 10 -6 6 3 10 1 10 -5 0 -7 -7
-9 -16 -6 -10 4 -13 2 -8 -6 4 -6 3 -8 -2 -5 -6 3 -16 2 -23 -3 -9 -5 -2 -7
18 -6 17 0 31 4 31 9 0 4 4 5 10 2 6 -4 7 1 4 12 -3 11 -2 14 3 8 4 -6 17 -11
28 -11 11 0 23 5 27 11 5 6 8 5 8 -4 0 -11 5 -9 22 5 12 10 18 14 15 7 -5 -7
5 -18 24 -27 40 -20 39 -20 39 2 0 14 -2 15 -10 2 -5 -8 -10 -10 -10 -4 0 19
12 23 31 11 16 -9 21 -9 28 1 7 11 9 10 14 -3 4 -9 3 -13 -2 -10 -5 3 -12 1
-15 -4 -6 -10 12 -10 29 0 6 3 27 5 47 4 20 -1 35 2 32 7 -3 5 -10 6 -15 3 -5
-3 -6 1 -2 10 5 13 7 14 14 3 8 -13 12 -14 50 -17 11 0 18 -5 15 -9 -8 -14 40
-8 58 7 13 11 14 17 4 30 -12 14 -11 15 5 2 10 -8 16 -20 13 -27 -3 -7 0 -16
7 -20 7 -4 9 -4 5 1 -13 14 11 45 30 39 13 -5 14 -4 3 4 -11 8 -11 10 0 15 9
3 9 6 2 6 -6 1 -19 -6 -27 -15 -9 -8 -16 -11 -16 -5 0 6 -1 14 -2 18 -3 7 26
15 55 14 9 0 17 5 17 10 0 6 -4 8 -9 5 -5 -3 -12 1 -15 10 -5 12 -1 14 16 8
19 -6 18 -3 -7 21 -17 15 -23 22 -14 16 20 -14 43 8 33 33 -5 13 -9 14 -20 5
-8 -7 -17 -9 -21 -5 -3 3 -1 6 6 6 7 0 11 6 8 14 -4 10 0 14 13 11 13 -3 17 1
13 11 -3 7 -9 11 -14 8 -5 -3 -9 0 -9 5 0 6 5 11 10 11 6 0 10 5 10 11 0 5 -4
8 -9 5 -5 -3 -12 1 -15 10 -3 8 -2 12 4 9 14 -9 12 9 -2 23 -7 7 -8 12 -2 12
6 0 16 -10 23 -22 l11 -23 -6 24 c-5 17 -3 21 6 16 9 -5 11 -4 6 4 -4 6 -12 9
-17 6 -5 -4 -9 -1 -9 5 0 6 -4 9 -9 5 -5 -3 -13 0 -17 6 -4 8 -3 9 4 5 16 -10
15 6 0 24 -11 12 -10 12 3 2 16 -12 29 -7 29 10 0 5 -4 7 -9 4 -4 -3 -13 5
-19 18 -9 20 -8 24 4 22 9 -1 20 -9 25 -17 5 -8 9 -9 9 -4 0 6 -4 17 -10 25
-6 9 -5 17 3 22 8 5 7 8 -5 8 -9 0 -19 -6 -21 -12 -4 -10 -6 -10 -6 0 -1 7 5
15 13 18 9 3 12 12 9 21 -4 11 -2 14 5 9 8 -5 10 -2 6 9 -5 12 -9 13 -20 4 -8
-7 -17 -9 -21 -5 -3 3 -1 6 6 6 7 0 11 6 8 14 -4 10 0 14 13 11 13 -3 17 1 13
11 -3 7 -9 11 -14 8 -5 -3 -9 0 -9 5 0 6 5 11 10 11 6 0 10 5 10 11 0 5 -4 8
-9 5 -5 -3 -12 1 -15 10 -3 8 -2 12 4 9 14 -9 12 9 -2 23 -7 7 -8 12 -2 12 6
0 16 -10 23 -22 l11 -23 -6 24 c-5 17 -3 21 6 16 9 -5 11 -4 6 4 -4 6 -12 9
-17 6 -5 -4 -9 -1 -9 5 0 6 -4 9 -9 5 -5 -3 -13 0 -17 6 -4 8 -3 9 4 5 16 -10
15 6 0 24 -11 12 -10 12 3 2 16 -12 29 -7 29 10 0 5 -4 7 -9 4 -4 -3 -13 5
-19 18 -9 20 -8 24 4 22 9 -1 20 -9 25 -17 5 -8 9 -9 9 -4 0 6 -4 17 -10 25
-6 9 -5 17 3 22 8 5 6 8 -5 8 -10 0 -18 -5 -18 -12 0 -6 -3 -8 -7 -4 -5 4 1
14 11 22 11 8 17 14 13 14 -4 0 -3 9 3 20 9 16 8 18 -5 14 -11 -5 -13 -2 -9
10 3 9 10 14 14 11 4 -3 14 3 21 13 12 15 12 16 -2 5 -18 -15 -30 -8 -22 13 3
9 -1 14 -12 14 -10 0 -13 -5 -9 -12 5 -7 3 -8 -6 -3 -10 6 -9 11 4 21 10 7 23
11 29 10 7 -2 9 -1 5 1 -12 7 -9 31 5 37 6 3 2 3 -10 1 -12 -3 -25 0 -29 6 -4
8 -3 9 4 5 7 -4 12 -1 12 8 0 10 -6 13 -17 10 -17 -5 -17 -5 0 6 9 6 15 15 12
20 -3 5 -1 11 4 15 6 3 8 -3 6 -13 -2 -12 3 -18 15 -18 10 0 18 5 17 11 -1 5
4 9 11 7 8 -1 11 1 9 5 -3 5 2 17 10 28 15 19 15 19 8 -5 -6 -20 -5 -23 6 -12
7 6 18 12 24 12 5 -1 -1 -10 -14 -20 -30 -25 -17 -26 15 -1 13 10 21 21 18 24
-3 3 1 8 8 13 7 4 10 4 6 -1 -4 -4 -1 -14 7 -21 20 -21 27 -17 15 9 -10 20
-10 21 3 4 8 -10 13 -26 10 -36 -3 -10 1 -22 8 -26 7 -5 10 -4 6 3 -8 12 2 42
13 42 5 0 7 -11 4 -24 -2 -14 1 -28 7 -32 7 -4 9 -3 5 4 -3 6 -3 13 2 16 4 2
9 -7 10 -20 1 -18 -2 -23 -11 -18 -6 4 -3 -2 7 -14 11 -12 16 -22 12 -22 -3 0
0 -10 9 -23 8 -13 12 -27 8 -31 -5 -4 -1 -6 7 -4 11 2 14 -4 13 -22 -2 -21 -1
-23 8 -7 8 13 4 24 -15 50 l-25 33 22 13 c18 11 20 11 10 0 -18 -19 -16 -29 5
-23 14 5 14 4 2 -4 -12 -9 -12 -13 3 -30 10 -11 15 -26 11 -36 -4 -11 -1 -16
10 -16 9 0 16 -5 16 -11 0 -5 -4 -8 -9 -4 -5 3 -13 0 -17 -7 -4 -7 -4 -10 1
-6 4 4 14 0 22 -10 8 -9 12 -12 9 -5 -4 6 -2 14 4 18 6 4 7 11 4 17 -4 7 -2 8
5 4 9 -6 9 -11 1 -21 -8 -10 -7 -14 2 -18 10 -4 10 -6 1 -6 -7 -1 -13 -6 -13
-12 0 -6 7 -9 15 -6 7 3 24 -3 37 -14 l23 -20 -27 17 c-26 15 -28 15 -28 0 0
-10 4 -15 9 -11 5 3 13 0 18 -7 12 -21 15 -58 3 -58 -6 0 -8 -5 -5 -11 5 -6
12 -4 20 8 7 10 17 15 21 10 4 -4 2 -7 -4 -7 -13 0 -5 -52 10 -61 7 -4 5 -9
-3 -12 -11 -5 -11 -6 1 -6 31 2 39 -2 45 -22 6 -17 9 -19 17 -8 7 10 8 8 3 -8
-4 -15 0 -25 12 -31 15 -9 15 -12 3 -27 -14 -16 -13 -17 10 -11 24 6 24 6 -2
-9 -32 -18 -35 -23 -10 -21 12 1 17 -6 16 -25 0 -16 5 -25 11 -22 7 2 12 10
12 18 0 8 -5 11 -11 8 -6 -3 -8 -3 -4 2 4 4 3 14 -3 22 -7 8 -8 13 -1 13 20 0
39 -70 21 -81 -8 -5 -8 -8 0 -13 6 -4 11 -2 11 3 0 6 4 11 9 11 6 0 9 -9 8
-20 -1 -11 -6 -20 -12 -20 -5 0 -4 -4 4 -9 8 -5 16 -17 17 -26 3 -20 14 -33
14 -17 0 7 8 12 17 12 13 0 14 -3 5 -12 -15 -15 -15 -28 -1 -28 5 0 7 6 3 13
-5 8 -2 7 9 -2 10 -8 15 -16 12 -19 -2 -3 5 -13 17 -23 11 -11 17 -19 12 -19
-6 0 -15 5 -22 12 -9 9 -15 9 -24 -1 -11 -10 -9 -11 6 -5 15 6 17 4 11 -6 -5
-8 -4 -11 3 -6 6 3 17 0 25 -8 8 -8 18 -12 22 -8 4 4 5 3 4 -3 -2 -5 3 -21 10
-35 l12 -25 -19 24 c-13 16 -21 20 -26 12 -4 -6 0 -14 8 -17 9 -3 14 -9 11
-13 -7 -12 29 -9 38 3 6 7 7 5 4 -5 -3 -9 -1 -21 5 -27 6 -6 6 -12 -1 -17 -6
-3 -10 -1 -9 5 2 7 -5 14 -15 15 -17 3 -18 2 -3 -14 10 -10 27 -17 41 -15 16
1 23 -2 18 -9 -4 -7 0 -8 11 -4 10 4 15 3 11 -3 -3 -6 1 -13 10 -16 11 -5 13
-10 5 -19 -8 -10 -8 -15 1 -21 8 -4 9 -3 5 4 -4 7 -1 12 8 12 9 0 16 -5 16
-12 0 -6 3 -9 6 -6 3 4 -2 19 -11 35 -17 28 -17 28 1 6 11 -13 28 -21 39 -19
11 2 26 -1 33 -7 9 -7 11 -6 9 4 -2 8 -2 10 1 6 2 -4 11 -2 20 5 12 10 14 10
8 1 -4 -8 -2 -13 8 -13 8 0 20 -8 25 -17 6 -10 11 -13 11 -7 0 13 42 13 51 1
3 -5 9 -2 12 6 4 11 -4 13 -34 12 -31 -2 -37 1 -28 11 6 8 16 11 23 7 17 -11
50 -10 58 2 5 6 8 5 8 -4 0 -11 3 -11 17 0 11 10 14 10 9 1 -5 -9 -1 -11 16
-8 13 3 25 5 28 5 3 1 -2 6 -10 11 -8 5 -10 10 -4 10 6 0 14 -3 18 -7 6 -7 29
-13 53 -15 7 -1 10 -5 7 -10 -3 -5 -10 -6 -15 -3 -16 11 -50 14 -44 5 3 -5 -4
-7 -15 -5 -11 2 -18 0 -15 -5 6 -9 31 -8 41 3 4 3 15 2 25 -3 12 -7 20 -7 24
0 4 6 11 8 16 5 5 -3 7 0 6 7 -2 7 -2 9 1 5 2 -4 11 -2 20 5 12 10 14 10 8 1
-4 -8 -2 -13 8 -13 8 0 20 -8 25 -17 6 -10 11 -13 11 -7 0 13 42 13 51 1 3 -5
9 -2 12 6 4 11 -4 13 -34 12 -31 -2 -37 1 -28 11 6 8 16 11 23 7 18 -12 56
-11 56 1 0 6 4 5 9 -3 6 -9 11 -10 15 -2 4 6 12 11 19 11 6 0 2 -6 -8 -14 -11
-8 -24 -12 -30 -9 -5 3 -4 0 4 -8 10 -11 15 -11 18 -1 3 6 11 12 18 12 7 0 16
-6 19 -12 3 -7 3 -2 0 12 -5 23 -4 24 7 5 7 -11 15 -22 18 -25 3 -3 6 -113 6
-245 l0 -240 220 0 220 0 2 305 c1 168 2 310 2 315 1 8 182 13 223 6 4 0 38
-56 76 -123 38 -68 79 -139 90 -158 11 -19 36 -64 56 -100 20 -36 40 -72 46
-80 5 -8 21 -36 35 -62 13 -26 29 -49 35 -53 6 -4 8 -10 5 -15 -3 -5 2 -16 11
-24 13 -14 51 -16 265 -16 137 0 249 2 249 5 0 2 -18 34 -40 70 -22 36 -40 70
-40 75 0 6 -4 10 -10 10 -5 0 -10 7 -10 15 0 8 -3 15 -7 15 -5 0 -19 23 -32
50 -14 28 -29 50 -33 50 -4 0 -8 4 -8 9 0 9 -211 366 -230 388 -18 21 -11 29
51 68 79 48 168 138 199 200 8 17 18 32 21 35 9 7 48 125 56 168 11 59 7 203
-7 263 -29 129 -129 276 -236 350 -87 59 -192 102 -304 124 -64 13 -898 14
-902 1 -2 -6 -4 -176 -4 -378 1 -338 0 -367 -16 -371 -9 -3 -25 2 -35 10 -17
13 -16 13 5 3 12 -6 22 -7 22 -2 0 5 -14 15 -32 23 -17 7 -26 15 -20 17 7 2 9
9 6 14 -4 6 -2 8 4 4 6 -3 14 -1 18 5 5 8 3 9 -6 4 -10 -6 -12 -4 -7 9 4 9 3
15 -2 12 -10 -7 -33 18 -26 28 3 3 -1 2 -7 -4 -9 -7 -8 -13 5 -22 13 -10 14
-17 6 -28 -10 -13 -10 -13 -6 1 3 9 -4 21 -14 28 -18 10 -18 13 -4 27 8 9 15
20 15 27 0 6 -6 3 -13 -8 -11 -14 -16 -15 -22 -5 -5 8 -2 18 9 25 14 11 15 13
2 18 -9 4 -20 -1 -25 -11 -14 -24 -13 -5 1 21 10 21 10 21 -7 7 -17 -14 -18
-14 -6 9 8 15 9 21 2 17 -6 -4 -11 -3 -11 3 0 5 3 11 8 14 4 2 1 2 -5 1 -7 -2
-13 0 -13 4 0 5 6 14 13 21 10 11 8 11 -10 0 -19 -11 -20 -15 -7 -35 12 -17
12 -24 3 -30 -8 -4 -9 -3 -5 4 4 7 2 12 -3 12 -6 0 -10 3 -10 8 1 4 0 10 -1
15 -1 4 -3 13 -4 20 -1 6 -8 11 -15 9 -7 -1 -10 2 -7 7 4 5 2 12 -3 16 -13 8
-3 34 12 31 7 -1 9 -1 4 1 -4 3 -5 9 -1 14 3 5 0 8 -8 7 -8 -2 -13 7 -12 24 0
15 -3 25 -7 22 -4 -2 -11 0 -14 6 -5 8 -12 7 -23 -2 -14 -12 -14 -10 -2 12
l13 25 -23 -20 c-13 -11 -20 -15 -17 -8 4 6 4 13 0 16 -5 2 -3 3 3 1 6 -1 16
7 22 17 10 15 10 19 0 17 -7 -2 -12 3 -10 10 3 17 -15 15 -22 -4 -4 -10 -2
-13 6 -8 7 4 8 3 4 -4 -4 -7 -11 -12 -17 -12 -10 0 -8 28 4 48 5 6 4 12 0 12
-5 0 -15 -6 -22 -12 -11 -11 -12 -10 -6 1 5 8 9 34 10 58 2 34 0 41 -10 33 -9
-8 -15 -8 -20 0 -3 5 -5 10 -3 11 2 0 19 3 38 6 37 5 86 40 56 40 -8 0 -12 -5
-9 -10 4 -6 1 -7 -7 -2 -9 5 -11 4 -6 -3 4 -7 2 -12 -3 -12 -6 0 -11 4 -11 9
0 16 30 30 68 33 7 1 11 7 8 15 -7 16 34 55 50 49 7 -3 15 2 18 11 5 13 9 13
23 2 9 -8 14 -9 10 -2 -4 6 5 21 20 34 16 12 20 19 11 16 -9 -3 -19 0 -21 8
-4 9 2 12 18 11 19 -3 22 1 20 21 -2 19 0 21 12 12 7 -7 16 -9 20 -5 3 3 1 6
-5 6 -7 0 -12 5 -12 11 0 6 7 8 16 5 10 -4 13 -2 8 6 -5 7 -2 9 9 5 12 -4 15
-1 12 14 -3 15 0 19 11 15 9 -3 12 -2 9 5 -4 6 -14 8 -22 5 -8 -3 -11 -1 -8 5
4 5 1 17 -7 26 -12 15 -11 15 10 2 21 -13 25 -12 38 6 9 11 19 19 24 18 5 -2
7 4 4 12 -4 8 -10 15 -16 15 -5 0 -7 -4 -4 -9 3 -4 -3 -16 -13 -25 -13 -11
-21 -14 -26 -7 -6 11 -5 12 14 15 16 2 25 16 10 16 -10 1 -9 4 4 11 10 6 24 8
32 5 10 -3 12 0 8 11 -5 12 -3 14 7 8 9 -6 11 -4 5 4 -5 9 -10 10 -18 2 -6 -6
-16 -11 -22 -11 -5 0 -4 4 4 9 8 5 15 22 16 38 0 15 6 29 13 29 26 3 26 5 7
21 -15 12 -16 14 -3 10 9 -3 19 -1 21 6 2 7 8 8 13 4 5 -4 2 -13 -6 -18 -13
-9 -13 -10 0 -6 8 2 16 13 16 25 1 12 -2 19 -6 17 -7 -4 -6 14 3 60 3 13 11
19 23 17 18 -2 18 -2 1 8 -9 6 -22 8 -29 4 -7 -5 -8 -3 -3 5 4 7 16 11 26 8
11 -3 19 -1 19 5 0 5 4 7 8 4 4 -2 9 4 9 15 1 10 -2 19 -8 19 -5 0 -8 -5 -7
-11 2 -6 -3 -14 -11 -17 -9 -3 -11 0 -6 8 5 8 1 19 -11 28 -18 14 -18 14 0 8
15 -5 17 -2 13 14 -5 18 -3 19 11 8 10 -8 13 -9 9 -1 -4 6 -3 14 3 18 13 8 13
25 -1 25 -5 0 -8 -4 -5 -8 3 -5 -1 -9 -9 -9 -8 0 -15 4 -15 9 0 4 5 8 12 8 9
0 9 3 1 11 -9 9 -7 18 5 37 16 25 16 26 -1 19 -23 -9 -22 0 2 13 14 7 22 7 27
-2 5 -7 3 -8 -7 -3 -8 5 -11 4 -6 0 4 -5 1 -18 -7 -31 -14 -21 -12 -34 5 -34
5 0 5 7 2 17 -5 12 -3 14 7 8 9 -5 11 -4 6 3 -4 7 -4 18 0 24 5 7 9 20 9 29 1
14 -3 16 -24 8 -22 -8 -23 -7 -10 3 9 7 15 25 15 39 -1 18 3 25 11 22 7 -3 13
0 13 7 0 6 -4 9 -9 6 -5 -3 -17 2 -28 12 -10 9 -13 13 -6 8 22 -14 28 3 7 18
-18 14 -18 15 9 25 15 6 27 13 27 16 0 9 -45 0 -53 -10 -5 -6 -7 -4 -4 5 2 8
11 14 18 12 8 -1 5 4 -5 13 -23 17 -14 20 14 5 16 -8 18 -8 14 5 -4 8 -11 15
-16 15 -6 0 -6 6 1 14 9 10 9 16 1 21 -6 4 -9 13 -6 20 2 7 2 16 -2 19 -8 9
-14 34 -16 72 0 19 -6 30 -12 27 -7 -2 -15 1 -20 8 -4 7 -3 10 4 5 6 -3 14 -1
18 5 4 7 3 9 -3 6 -6 -4 -21 1 -33 11 -18 15 -19 19 -7 19 9 0 14 -3 12 -7 -2
-4 2 -7 10 -7 8 0 11 5 7 11 -4 6 -7 19 -8 29 -2 28 -3 28 -24 17 -11 -6 -20
-7 -19 -3 1 4 1 15 0 23 -1 12 -3 12 -10 2 -7 -11 -9 -11 -14 1 -4 11 0 15 14
12 10 -2 19 0 19 6 0 8 -15 13 -32 10 -5 0 -7 5 -5 12 1 6 -4 11 -10 10 -7 -2
-12 0 -11 5 1 4 -3 18 -10 32 -11 21 -11 22 0 9 7 -9 18 -18 23 -20 6 -2 9 -7
8 -11 -2 -4 4 -5 13 -1 12 5 12 8 -6 20 -11 8 -18 18 -15 22 2 5 -4 16 -15 26
-11 10 -20 24 -20 30 0 7 -7 16 -16 19 -9 4 -14 9 -10 13 3 4 -4 17 -16 31
-13 13 -22 27 -20 30 1 4 -4 7 -10 7 -7 0 -12 8 -12 17 1 10 -3 16 -10 15 -6
-1 -10 4 -8 11 1 8 -2 11 -8 7 -7 -4 -3 -16 9 -34 14 -19 17 -31 10 -42 -8
-12 -9 -12 -7 1 3 20 -21 62 -32 55 -5 -3 -7 8 -5 25 2 17 0 28 -6 25 -5 -4
-9 2 -10 12 0 11 -3 13 -6 5 -3 -7 1 -19 7 -28 11 -12 10 -13 -5 -8 -14 6 -16
4 -10 -6 5 -8 4 -11 -3 -6 -6 3 -8 18 -6 33 5 24 3 25 -12 12 -15 -12 -17 -12
-9 0 6 11 4 13 -9 8 -9 -4 -14 -3 -11 2 3 5 1 12 -5 16 -5 3 -10 12 -10 18 0
8 4 7 9 -2 5 -8 17 -16 25 -17 9 -1 13 2 10 8 -3 5 -8 7 -12 4 -3 -3 -11 2
-18 12 -7 9 -18 17 -26 17 -7 0 -12 9 -10 20 2 15 1 17 -6 6 -7 -9 -12 -10
-16 -2 -4 6 -11 9 -16 6 -4 -3 -11 2 -14 11 -6 15 -8 15 -31 0 -17 -11 -26
-13 -31 -4 -4 7 -3 8 4 4 6 -3 16 2 21 13 15 28 14 38 -2 16 -11 -14 -16 -15
-22 -5 -6 9 -4 11 6 5 11 -7 12 -6 2 7 -7 8 -9 19 -5 24 4 4 -1 2 -10 -5 -14
-11 -20 -9 -39 8 -18 16 -26 18 -43 9 -19 -10 -20 -10 -7 6 12 14 12 16 -3 10
-12 -5 -15 -2 -10 12 5 18 5 18 -6 2 -6 -10 -21 -18 -33 -17 -21 1 -21 1 -2 7
11 4 21 13 23 20 2 10 -2 10 -17 2 -17 -9 -19 -7 -16 12 4 16 2 19 -7 10 -19
-19 -32 -14 -17 6 7 9 9 14 5 10 -5 -4 -16 -2 -25 5 -14 10 -14 10 -4 -3 6 -8
13 -19 15 -25 1 -5 9 -9 15 -9 9 1 10 -3 2 -17 -11 -22 -20 -25 -16 -6 1 6 -4
11 -11 9 -8 -1 -11 2 -8 7 8 12 -22 43 -34 36 -5 -3 -16 5 -24 17 -19 26 -21
16 -4 -15 10 -19 9 -20 -4 -10 -8 7 -19 9 -23 5 -5 -4 -5 -1 -1 6 5 9 -2 11
-31 7 -27 -3 -32 -2 -18 4 11 5 23 7 26 5 12 -7 31 24 19 31 -6 4 -9 1 -8 -7
2 -7 -3 -11 -12 -9 -8 2 -36 3 -62 3 -44 -1 -52 4 -50 29 1 3 -5 6 -13 6 -8 0
-12 -4 -9 -9 3 -4 0 -8 -5 -8 -6 0 -11 6 -11 13 0 7 -3 8 -8 2 -11 -16 -32
-16 -32 -1 0 20 -17 29 -26 15 -5 -8 -3 -9 6 -4 10 6 12 3 8 -12 -5 -17 -1
-20 23 -18 16 1 31 0 33 -4 3 -4 -17 -7 -44 -6 -26 0 -46 3 -43 8 7 12 -12 8
-26 -5 -11 -10 -13 -10 -7 0 4 6 2 13 -3 13 -33 4 -46 2 -44 -7 2 -13 -43 -12
-54 0 -5 5 -2 6 6 1 11 -6 13 -4 8 11 -7 18 -6 18 7 1 8 -11 17 -14 20 -8 4 5
-3 15 -14 21 -11 6 -20 7 -20 3 0 -4 -5 -1 -11 7 -9 13 -10 12 -5 -2 3 -12 0
-18 -9 -18 -9 0 -13 7 -10 18 3 9 -1 4 -9 -12 -7 -16 -21 -31 -30 -32 -9 -1
-14 2 -10 7 3 5 10 7 15 4 5 -4 9 0 9 7 0 8 -11 15 -25 16 -38 3 -49 6 -57 17
-5 7 -8 6 -8 0 0 -6 -10 -11 -22 -12 -22 -2 -22 -1 -4 13 11 8 15 14 9 14 -18
0 -34 -25 -22 -37 6 -6 5 -10 -6 -10 -8 0 -15 7 -15 14 0 8 -4 12 -9 8 -5 -3
-13 4 -16 16 -4 11 -9 18 -12 15 -3 -3 1 -16 10 -29 13 -20 13 -24 1 -24 -8 0
-14 6 -14 14 0 7 -4 14 -10 14 -20 3 -25 4 -38 13 -7 4 -16 5 -19 2 -4 -3 -1
-6 6 -6 7 0 10 -4 7 -9 -8 -12 -30 -8 -50 8 -9 8 -19 11 -23 7 -3 -3 -1 -6 6
-6 7 0 9 -5 6 -10 -4 -6 -12 -7 -18 -3 -18 11 -38 12 -31 2 3 -5 -5 -9 -17 -9
-17 0 -19 3 -10 14 9 11 9 16 0 22 -7 4 -9 3 -5 -4z m-519 -31 c3 -5 -3 -8
-12 -6 -10 1 -24 -2 -31 -8 -14 -11 -27 -4 -19 10 7 12 55 15 62 4z m310 -3
c5 4 5 2 2 -5 -6 -9 -18 -10 -45 -4 -2 1 0 6 3 11 5 8 11 8 19 1 7 -6 17 -7
21 -3z m266 -11 c-13 -13 -26 -3 -16 12 3 6 11 8 17 5 6 -4 6 -10 -1 -17z m63
11 c4 4 6 2 4 -4 -1 -7 2 -12 7 -13 6 -1 10 5 10 12 0 6 8 12 18 12 19 0 24
-20 5 -20 -7 -1 -12 -6 -11 -12 3 -14 -20 -11 -41 6 -13 11 -16 11 -16 0 0
-11 -2 -11 -9 1 -13 19 -3 34 13 21 7 -6 16 -7 20 -3z m-739 -8 c3 -5 1 -10
-4 -10 -6 0 -11 5 -11 10 0 6 2 10 4 10 3 0 8 -4 11 -10z m135 -5 c11 -13 10
-14 -4 -9 -9 3 -16 10 -16 15 0 13 6 11 20 -6z m440 -1 c0 -2 -7 -4 -15 -4 -8
0 -15 4 -15 10 0 5 7 7 15 4 8 -4 15 -8 15 -10z m56 0 c18 -15 18 -15 -3 -5
-28 14 -36 14 -27 -1 4 -7 3 -8 -5 -4 -11 7 -6 26 8 26 4 0 16 -7 27 -16z
m288 4 c-3 -4 -9 -8 -15 -8 -5 0 -9 4 -9 8 0 5 7 9 15 9 8 0 12 -4 9 -9z m33
-11 c-1 -5 -11 -11 -20 -13 -9 -1 -15 2 -11 7 3 5 10 6 16 3 8 -5 9 -1 5 10
-4 11 -3 15 4 11 5 -4 8 -12 6 -18z m-850 -3 c-8 -8 -48 -13 -43 -6 2 4 14 8
26 9 12 1 20 0 17 -3z m377 -2 c3 -5 -1 -9 -9 -9 -8 0 -12 4 -9 9 3 4 7 8 9 8
2 0 6 -4 9 -8z m216 -2 c0 -5 -5 -10 -11 -10 -5 0 -7 5 -4 10 3 6 8 10 11 10
2 0 4 -4 4 -10z m602 -22 c-8 -8 -9 -4 -5 13 4 13 8 18 11 10 2 -7 -1 -18 -6
-23z m78 2 c0 -5 -5 -10 -11 -10 -5 0 -7 5 -4 10 3 6 8 10 11 10 2 0 4 -4 4
-10z m-1587 -25 c-3 -9 -8 -14 -10 -11 -3 3 -2 9 2 15 9 16 15 13 8 -4z m-26
-27 c-3 -8 -6 -5 -6 6 -1 11 2 17 5 13 3 -3 4 -12 1 -19z m1758 12 c3 -5 1
-10 -4 -10 -6 0 -11 5 -11 10 0 6 2 10 4 10 3 0 8 -4 11 -10z m175 -82 c11
-22 10 -22 -4 -4 -11 13 -16 15 -16 6 0 -7 -3 -11 -6 -7 -6 5 3 27 11 27 2 0
9 -10 15 -22z m44 -23 c-4 -8 -11 -12 -16 -9 -6 4 -5 10 3 15 19 12 19 11 13
-6z m76 -55 c0 -5 -5 -10 -11 -10 -5 0 -7 5 -4 10 3 6 8 10 11 10 2 0 4 -4 4
-10z m31 -32 c-10 -11 -11 -10 -6 5 4 10 2 17 -4 17 -6 0 -11 5 -11 12 0 8 6
6 17 -5 14 -14 15 -19 4 -29z m-2097 -28 c9 -13 9 -13 -5 -3 -9 7 -18 10 -22
7 -3 -3 -3 4 0 17 5 16 8 19 11 9 3 -8 10 -22 16 -30z m2129 25 c-3 -9 -8 -14
-10 -11 -3 3 -2 9 2 15 9 16 15 13 8 -4z m-2138 -85 c-3 -5 -12 -10 -18 -10
-7 0 -6 4 3 10 19 12 23 12 15 0z m15 -20 c0 -5 -5 -10 -11 -10 -5 0 -7 5 -4
10 3 6 8 10 11 10 2 0 4 -4 4 -10z m2297 -47 c-4 -3 3 -17 15 -30 12 -13 18
-23 14 -23 -5 0 9 -21 30 -47 20 -27 31 -42 24 -36 -10 9 -17 10 -27 2 -9 -8
-13 -8 -13 -1 0 6 4 12 10 14 5 2 -1 15 -14 30 -12 15 -27 24 -32 20 -5 -3 -4
0 3 7 10 11 8 18 -8 32 -18 16 -19 39 -2 39 4 0 3 -3 0 -7z m-2306 -122 c-7
-5 -10 -14 -6 -21 6 -9 3 -9 -14 0 -26 13 -21 25 11 27 16 2 19 0 9 -6z m-11
-56 c0 -8 -4 -15 -10 -15 -5 0 -7 7 -4 15 4 8 8 15 10 15 2 0 4 -7 4 -15z m15
-35 c3 -5 1 -10 -4 -10 -6 0 -11 5 -11 10 0 6 2 10 4 10 3 0 8 -4 11 -10z
m2472 -75 c0 -8 -7 -15 -15 -15 -12 0 -12 3 -2 15 7 8 13 15 15 15 1 0 2 -7 2
-15z m-2487 -51 c0 -8 -4 -14 -8 -14 -4 0 -8 9 -8 19 0 11 4 17 8 15 4 -3 8
-12 8 -20z m2514 -52 c2 -4 -4 -9 -15 -9 -11 -1 -17 2 -14 8 7 11 22 12 29 1z
m-2505 -18 c4 3 7 -4 7 -15 0 -19 -1 -19 -13 -3 -7 10 -13 23 -12 28 0 6 3 5
6 -2 2 -6 8 -10 12 -8z m1106 -54 c8 -13 25 -13 25 1 0 5 -6 7 -12 3 -9 -5 -9
-2 1 9 7 9 19 17 25 17 7 0 6 -3 -2 -9 -11 -6 -11 -10 0 -19 10 -8 18 -8 28 0
12 8 11 9 -5 3 -11 -3 -16 -2 -11 2 4 4 20 8 34 8 19 1 26 5 24 15 -2 8 0 11
4 7 16 -16 12 -35 -7 -32 -11 2 -17 0 -14 -6 4 -5 11 -7 16 -4 5 4 9 0 10 -7
0 -7 7 1 14 17 9 19 14 24 15 13 0 -10 6 -19 13 -19 39 -4 69 1 83 15 17 18
28 21 19 6 -3 -5 5 -15 19 -22 14 -6 26 -16 26 -21 0 -5 -6 -4 -14 2 -20 16
-50 21 -67 10 -10 -6 -7 -8 11 -5 32 4 63 -11 54 -27 -4 -7 3 -3 15 8 20 17
21 21 7 31 -9 6 -16 15 -16 19 0 5 9 0 19 -9 11 -10 17 -24 15 -31 -8 -20 24
-26 35 -7 8 13 9 10 6 -15 -2 -18 1 -33 6 -33 6 0 9 7 7 16 -2 10 4 19 12 21
12 4 12 3 2 -5 -11 -7 -11 -10 2 -15 10 -4 13 -13 9 -24 -6 -16 -5 -16 10 -4
10 8 20 11 24 7 3 -3 1 -6 -5 -6 -7 0 -12 -7 -12 -15 0 -8 5 -15 11 -15 5 0 7
5 3 12 -4 7 -3 8 5 4 9 -6 9 -13 -3 -30 -12 -19 -12 -23 -1 -23 8 0 12 4 9 8
-2 4 0 10 5 13 18 11 5 -24 -15 -39 -18 -14 -17 -15 8 -5 22 7 26 6 21 -5 -3
-8 0 -15 7 -15 6 0 10 -5 8 -11 -4 -13 -23 -13 -23 0 0 5 -3 12 -6 15 -3 4 -5
-6 -4 -21 1 -16 -4 -35 -12 -45 -9 -10 -11 -18 -4 -22 6 -4 8 -14 5 -24 -5
-13 -4 -14 4 -4 7 11 10 11 15 -3 4 -9 3 -13 -3 -10 -9 5 -12 -1 -9 -21 0 -4
-5 -11 -13 -15 -10 -7 -10 -9 2 -9 12 -1 11 -3 -3 -11 -9 -5 -22 -7 -28 -3 -7
4 -10 1 -7 -7 3 -8 11 -13 17 -11 7 1 9 -2 6 -8 -5 -8 -14 -5 -27 7 -21 18
-21 18 -8 -7 l13 -25 -22 20 c-21 18 -23 18 -32 3 -6 -10 -17 -15 -27 -12 -14
5 -14 4 -2 -4 8 -6 18 -8 22 -6 4 3 8 1 8 -5 0 -5 -9 -12 -19 -16 -13 -4 -18
-12 -15 -23 5 -15 4 -15 -5 -2 -10 13 -12 13 -21 0 -6 -10 -10 -11 -10 -2 0 6
-1 15 -2 19 -2 3 7 7 19 8 13 1 26 5 30 8 3 4 -7 6 -23 5 -34 -3 -59 -28 -41
-41 8 -6 7 -7 -3 -4 -8 2 -15 9 -15 15 0 7 -4 12 -10 11 -5 0 -9 -6 -7 -14 2
-9 -4 -11 -19 -8 -15 4 -17 8 -7 14 9 6 6 8 -9 6 -12 0 -19 -5 -17 -9 3 -4 -2
-8 -10 -8 -9 0 -16 5 -16 10 0 6 -10 2 -22 -10 -12 -11 -27 -20 -32 -20 -6 1
0 10 13 20 13 11 18 20 13 20 -6 0 -14 -4 -17 -10 -7 -12 -41 -13 -48 -2 -2 4
-2 1 -1 -5 2 -7 -4 -13 -14 -13 -15 0 -15 -2 -2 -10 20 -13 4 -13 -20 0 -13 7
-21 7 -25 0 -3 -5 -1 -10 6 -10 7 0 10 -3 6 -6 -3 -3 -11 -3 -17 1 -8 5 -8 11
1 21 6 7 15 11 20 8 5 -3 6 2 3 10 -3 9 -10 16 -16 16 -5 0 -6 -4 -3 -10 3 -5
1 -10 -4 -10 -6 0 -11 6 -12 13 0 10 -2 10 -6 0 -7 -18 -23 -16 -47 5 -21 17
-21 17 -2 -5 11 -13 14 -23 8 -23 -6 0 -19 -3 -29 -7 -15 -6 -16 -5 -5 9 10
13 10 18 1 24 -8 5 -9 3 -4 -6 6 -10 4 -12 -8 -7 -10 4 -16 2 -14 -5 3 -16
-31 -18 -44 -2 -6 8 -15 11 -20 8 -5 -3 -9 0 -9 5 0 14 13 14 28 -1 9 -9 12
-9 12 2 0 10 5 8 16 -6 15 -18 15 -17 1 7 -12 20 -13 29 -4 40 7 7 3 6 -9 -4
-29 -24 -41 -21 -18 5 l19 22 -26 -16 c-20 -13 -26 -13 -26 -3 0 8 5 13 11 12
6 -1 10 4 8 11 -1 8 2 11 8 7 5 -3 10 -1 10 6 0 7 -9 9 -22 6 -22 -6 -22 -5
-5 8 11 7 24 12 30 11 7 -2 9 -1 5 1 -12 7 -9 31 5 37 6 3 2 3 -10 1 -12 -3
-25 0 -29 6 -4 8 -3 9 4 5 7 -4 12 -2 12 4 0 6 4 8 10 5 6 -3 7 1 4 10 -5 12
-9 13 -20 4 -8 -7 -17 -9 -21 -5 -3 3 -1 6 6 6 7 0 11 6 8 14 -4 10 0 14 13
11 13 -3 17 1 13 11 -3 7 -9 11 -14 8 -5 -3 -9 0 -9 5 0 6 5 11 10 11 6 0 10
5 10 11 0 5 -4 8 -9 5 -5 -3 -12 1 -15 10 -3 8 -2 12 4 9 14 -9 12 9 -2 23 -7
7 -8 12 -2 12 6 0 16 -10 23 -22 l11 -23 -6 24 c-5 17 -3 21 6 16 9 -5 11 -4
6 4 -4 6 -12 9 -17 6 -5 -4 -9 -1 -9 5 0 6 -4 9 -9 5 -5 -3 -13 0 -17 6 -4 8
-3 9 4 5 16 -10 15 6 0 24 -11 12 -10 12 3 2 16 -12 29 -7 29 10 0 5 -4 7 -9
4 -5 -3 -12 1 -15 10 -3 8 -2 12 4 9 18 -11 10 14 -7 25 -17 11 -17 11 1 6 15
-5 17 -2 13 14 -3 11 -1 18 3 15 5 -3 13 7 19 22 8 19 10 21 7 6 -3 -16 0 -20
12 -16 11 5 13 3 7 -8 -6 -11 -5 -12 6 -1 7 6 17 12 22 12 4 0 5 -6 1 -12 -6
-10 -5 -10 7 -1 12 9 18 10 27 1 8 -8 15 -8 26 1 11 9 15 9 18 -1 3 -7 7 -5
12 7 4 11 4 16 0 13 -3 -4 -13 0 -21 8 -9 8 -18 12 -22 8 -3 -4 0 -9 7 -11 13
-5 7 -23 -9 -23 -6 0 -7 5 -3 12 5 7 3 8 -5 3 -10 -6 -11 -3 -2 14 11 20 14
20 41 6 16 -8 32 -19 35 -25z m-92 15 c-3 -9 -8 -14 -10 -11 -3 3 -2 9 2 15 9
16 15 13 8 -4z m308 2 c-11 -14 -45 -16 -57 -5 -3 4 6 5 20 4 15 -2 29 1 32 5
3 5 8 9 11 9 3 0 0 -6 -6 -13z m1194 4 c3 -5 0 -13 -6 -17 -7 -4 -9 -3 -5 4 3
5 0 13 -6 15 -9 4 -10 6 -1 6 6 1 14 -3 18 -8z m-1525 -7 c0 -8 -19 -13 -24
-6 -3 5 1 9 9 9 8 0 15 -2 15 -3z m1535 -34 c-4 -6 -1 -18 6 -26 10 -12 9 -13
-5 -8 -18 7 -22 44 -5 44 5 0 7 -5 4 -10z m-2535 -15 c0 -8 -4 -15 -10 -15 -5
0 -7 7 -4 15 4 8 8 15 10 15 2 0 4 -7 4 -15z m15 -35 c3 -5 1 -10 -4 -10 -6 0
-11 5 -11 10 0 6 2 10 4 10 3 0 8 -4 11 -10z m2515 0 c0 -5 -5 -10 -11 -10 -5
0 -7 5 -4 10 3 6 8 10 11 10 2 0 4 -4 4 -10z m-2530 -126 c0 -8 -4 -14 -8 -14
-4 0 -8 9 -8 19 0 11 4 17 8 15 4 -3 8 -12 8 -20z m2543 -50 c-3 -8 -10 -11
-16 -7 -8 5 -7 8 1 11 9 3 9 9 1 25 -9 21 -9 21 5 4 8 -11 12 -25 9 -33z
m-949 -13 c-4 -9 -6 -24 -6 -33 1 -16 0 -16 -17 0 -15 14 -16 19 -4 33 7 9 10
19 6 23 -4 4 1 4 10 0 12 -4 16 -12 11 -23z m-1585 -7 c4 3 7 -4 7 -15 0 -19
-1 -19 -13 -3 -7 10 -13 23 -12 28 0 6 3 5 6 -2 2 -6 8 -10 12 -8z m5 -59 c-4
-8 -13 -15 -22 -15 -13 0 -12 3 4 15 24 18 25 18 18 0z m916 -24 c0 -4 -6 -8
-13 -8 -8 0 -14 6 -14 13 0 7 6 10 14 7 7 -3 13 -8 13 -12z m-925 -19 c-3 -3
-11 0 -18 7 -9 10 -8 11 6 5 10 -3 15 -9 12 -12z m-1 -48 c3 -8 2 -13 -3 -9
-5 3 -11 -1 -14 -7 -3 -7 -4 -3 -4 10 1 25 12 29 21 6z m1486 -24 l13 -25 -20
20 c-11 11 -18 24 -16 28 6 10 7 9 23 -23z m-406 -54 c-5 -13 -34 -31 -34 -21
0 5 30 35 35 35 3 0 2 -6 -1 -14z m180 -7 c-3 -5 -10 -7 -15 -3 -5 3 -7 10 -3
15 3 5 10 7 15 3 5 -3 7 -10 3 -15z m49 -2 c-5 -8 -8 -7 -11 1 -2 7 -9 9 -14
6 -7 -4 -8 -2 -4 4 4 6 13 9 21 6 8 -4 12 -11 8 -17z m-132 -10 c-10 -9 -11
-8 -5 6 3 10 9 15 12 12 3 -3 0 -11 -7 -18z m-1177 1 c-3 -4 -9 -8 -15 -8 -5
0 -9 4 -9 8 0 5 7 9 15 9 8 0 12 -4 9 -9z m1 -28 c3 -6 -1 -7 -9 -4 -18 7 -21
14 -7 14 6 0 13 -4 16 -10z m10 -121 c-4 -5 -12 -9 -18 -8 -9 0 -8 2 1 6 6 2
9 10 6 15 -4 7 -2 8 5 4 6 -4 9 -12 6 -17z m-5 -43 c0 -2 -7 -7 -16 -10 -8 -3
-12 -2 -9 4 6 10 25 14 25 6z m-5 -44 c-3 -3 -11 0 -18 7 -9 10 -8 11 6 5 10
-3 15 -9 12 -12z m0 -100 c-3 -3 -11 0 -18 7 -9 10 -8 11 6 5 10 -3 15 -9 12
-12z m2360 -24 c-19 -11 -30 -5 -21 11 4 6 14 7 22 4 15 -5 14 -7 -1 -15z
m-2361 -24 c3 -8 2 -13 -3 -9 -5 3 -11 -1 -14 -7 -3 -7 -4 -3 -4 10 1 25 12
29 21 6z m2275 -68 c8 -10 8 -16 -3 -25 -11 -9 -15 -8 -19 3 -4 11 -1 13 11 9
15 -6 15 -5 3 10 -7 9 -11 17 -8 17 2 0 10 -6 16 -14z m-2265 -46 c9 -13 9
-13 -5 -3 -9 7 -18 10 -22 7 -3 -3 -3 4 0 17 5 16 8 19 11 9 3 -8 10 -22 16
-30z m2226 20 c0 -5 -5 -10 -11 -10 -5 0 -7 5 -4 10 3 6 8 10 11 10 2 0 4 -4
4 -10z m-2235 -80 c-3 -5 -12 -10 -18 -10 -7 0 -6 4 3 10 19 12 23 12 15 0z
m15 -20 c0 -5 -5 -10 -11 -10 -5 0 -7 5 -4 10 3 6 8 10 11 10 2 0 4 -4 4 -10z
m2046 -115 c-1 -13 -5 -28 -10 -32 -4 -4 -6 -1 -4 7 2 8 -2 14 -9 15 -6 0 -15
4 -20 9 -5 5 -3 6 5 2 7 -4 15 -1 18 8 9 24 21 19 20 -9z m-2052 -53 c-6 -4
-13 -15 -17 -24 -9 -26 -25 -22 -22 5 1 12 3 22 4 22 15 5 43 2 35 -3z m-7
-49 c-4 -3 -2 -12 4 -20 15 -17 1 -17 -17 1 -11 11 -11 16 -1 19 18 8 21 8 14
0z m2156 -64 c2 -8 6 -19 10 -26 8 -12 -10 -29 -20 -19 -4 3 -1 6 6 6 7 0 9 5
6 10 -4 6 -11 8 -16 5 -5 -4 -9 -1 -9 4 0 6 5 11 11 11 5 0 8 4 4 10 -3 5 -13
6 -22 3 -15 -6 -16 -5 -3 9 15 17 30 11 33 -13z m-1194 -1 c-5 -10 -13 -18
-16 -18 -3 0 -3 3 0 7 4 3 3 11 -3 17 -6 8 -3 12 10 12 15 0 16 -4 9 -18z
m-953 -25 c-2 -10 -11 -19 -22 -20 -18 -3 -18 -2 1 6 11 5 16 10 12 10 -5 1
-5 6 -2 11 9 15 14 12 11 -7z m3221 -10 c33 -10 70 -31 99 -58 25 -24 45 -44
44 -46 -1 -2 4 -17 10 -34 6 -16 10 -52 9 -80 -4 -90 -52 -155 -144 -196 -45
-20 -68 -22 -223 -24 -95 0 -176 3 -179 7 -4 7 -6 265 -4 415 l1 32 168 0
c125 0 180 -4 219 -16z m-2055 -40 c-6 -2 -9 -10 -6 -15 4 -7 2 -8 -5 -4 -13
9 -5 26 12 25 9 0 8 -2 -1 -6z m-252 -22 c0 -4 -6 -8 -13 -8 -8 0 -14 6 -14
13 0 7 6 10 14 7 7 -3 13 -8 13 -12z m-926 -3 c-3 -4 -9 -8 -15 -8 -5 0 -9 4
-9 8 0 5 7 9 15 9 8 0 12 -4 9 -9z m1 -28 c3 -6 -1 -7 -9 -4 -18 7 -21 14 -7
14 6 0 13 -4 16 -10z m925 -36 c0 -8 -19 -13 -24 -6 -3 5 1 9 9 9 8 0 15 -2
15 -3z m323 -19 c-7 -21 -12 -19 -10 4 0 11 5 18 9 15 4 -3 5 -11 1 -19z
m-1250 -34 c3 -14 1 -18 -9 -14 -8 3 -11 9 -8 14 3 5 0 9 -6 9 -6 0 -8 5 -5
10 9 14 21 5 28 -19z m927 5 c0 -3 -4 -8 -10 -11 -5 -3 -10 -1 -10 4 0 6 5 11
10 11 6 0 10 -2 10 -4z m-930 -51 c0 -8 -4 -15 -10 -15 -5 0 -7 7 -4 15 4 8 8
15 10 15 2 0 4 -7 4 -15z m15 -35 c3 -5 1 -10 -4 -10 -6 0 -11 5 -11 10 0 6 2
10 4 10 3 0 8 -4 11 -10z m1360 -80 c4 -6 1 -9 -7 -8 -8 2 -12 -5 -10 -17 2
-16 1 -17 -7 -5 -7 9 -6 19 1 27 13 16 15 16 23 3z m1015 -20 c-8 -5 -17 -7
-19 -4 -3 3 1 9 9 14 8 5 17 7 19 4 3 -3 -1 -9 -9 -14z m-2390 -26 c0 -8 -4
-14 -8 -14 -4 0 -8 9 -8 19 0 11 4 17 8 15 4 -3 8 -12 8 -20z m2400 6 c0 -5
-5 -10 -11 -10 -5 0 -7 5 -4 10 3 6 8 10 11 10 2 0 4 -4 4 -10z m-2391 -76 c4
3 7 -4 7 -15 0 -19 -1 -19 -13 -3 -7 10 -13 23 -12 28 0 6 3 5 6 -2 2 -6 8
-10 12 -8z m-9 -90 c0 -8 -4 -14 -8 -14 -4 0 -8 9 -8 19 0 11 4 17 8 15 4 -3
8 -12 8 -20z m1520 -54 c0 -5 -2 -10 -4 -10 -3 0 -8 5 -11 10 -3 6 -1 10 4 10
6 0 11 -4 11 -10z m-1511 -16 c4 3 7 -4 7 -15 0 -19 -1 -19 -13 -3 -7 10 -13
23 -12 28 0 6 3 5 6 -2 2 -6 8 -10 12 -8z m1527 -39 c-1 -8 -8 -21 -16 -28 -9
-8 -11 -8 -6 0 3 6 1 15 -6 19 -8 5 -6 10 8 15 10 4 20 8 21 8 1 1 0 -6 -1
-14z m-1525 -102 c10 -11 10 -14 2 -9 -8 4 -13 2 -13 -8 0 -8 6 -17 13 -19 9
-4 9 -6 -1 -6 -13 -1 -33 39 -25 52 6 10 9 9 24 -10z m1624 -31 c-3 -3 -11 0
-18 7 -9 10 -8 11 6 5 10 -3 15 -9 12 -12z m-695 -32 c0 -5 -5 -10 -11 -10 -5
0 -7 5 -4 10 3 6 8 10 11 10 2 0 4 -4 4 -10z m-370 -114 c0 -2 -8 -10 -17 -17
-16 -13 -17 -12 -4 4 13 16 21 21 21 13z m81 -19 c-10 -9 -11 -8 -5 6 3 10 9
15 12 12 3 -3 0 -11 -7 -18z m-448 -1 c4 -10 1 -13 -8 -9 -8 3 -12 9 -9 14 7
12 11 11 17 -5z m480 1 c3 -8 -1 -14 -8 -14 -7 0 -11 6 -8 14 3 7 6 13 8 13 2
0 5 -6 8 -13z m153 -15 c-8 -13 -43 -9 -36 4 3 5 8 8 13 7 4 -2 7 2 7 9 0 9 3
9 11 1 6 -6 8 -16 5 -21z m-496 14 c0 -2 -7 -7 -16 -10 -8 -3 -12 -2 -9 4 6
10 25 14 25 6z m1560 -6 c0 -5 -2 -10 -4 -10 -3 0 -8 5 -11 10 -3 6 -1 10 4
10 6 0 11 -4 11 -10z m320 0 c0 -5 -2 -10 -4 -10 -3 0 -8 5 -11 10 -3 6 -1 10
4 10 6 0 11 -4 11 -10z"/>
<path d="M1714 3460 c0 -16 2 -28 4 -25 9 8 11 55 3 55 -4 0 -7 -13 -7 -30z"/>
<path d="M1700 3380 c0 -5 5 -10 11 -10 5 0 7 5 4 10 -3 6 -8 10 -11 10 -2 0
-4 -4 -4 -10z"/>
<path d="M2302 3173 c-6 -2 -10 -9 -6 -14 3 -5 0 -9 -6 -9 -6 0 -8 -4 -5 -10
3 -5 11 -10 17 -10 6 0 8 3 5 6 -3 4 -2 15 4 25 5 11 8 19 7 18 -2 0 -9 -3
-16 -6z"/>
<path d="M2345 3249 c-4 -6 -5 -12 -2 -15 2 -3 7 2 10 11 7 17 1 20 -8 4z"/>
<path d="M1270 4420 c0 -5 3 -10 8 -11 40 -5 60 -4 56 3 -3 4 -10 6 -15 3 -5
-4 -9 0 -9 7 0 9 -3 9 -10 -2 -6 -10 -10 -11 -10 -2 0 6 -4 12 -10 12 -5 0
-10 -4 -10 -10z"/>
<path d="M1496 4421 c9 -9 34 -9 34 -1 0 5 -9 8 -20 7 -10 -1 -17 -3 -14 -6z"/>
<path d="M2016 4421 c9 -9 34 -9 34 -1 0 5 -9 8 -20 7 -10 -1 -17 -3 -14 -6z"/>
<path d="M2143 4415 c0 -8 8 -12 20 -9 11 2 26 -1 32 -6 13 -11 43 15 32 27
-4 3 -9 -2 -13 -11 -5 -12 -10 -14 -19 -6 -20 17 -52 20 -52 5z"/>
<path d="M850 4401 c0 -5 5 -13 10 -16 6 -3 10 -2 10 4 0 5 -4 13 -10 16 -5 3
-10 2 -10 -4z"/>
<path d="M2371 4397 c-8 -10 -7 -14 2 -14 8 0 14 6 14 14 0 7 -1 13 -2 13 -2
0 -8 -6 -14 -13z"/>
<path d="M2416 4402 c-3 -5 1 -9 9 -9 8 0 12 4 9 9 -3 4 -7 8 -9 8 -2 0 -6 -4
-9 -8z"/>
<path d="M740 4315 c-11 -13 -10 -14 4 -9 9 3 16 10 16 15 0 13 -6 11 -20 -6z"/>
<path d="M715 4031 c-3 -5 -2 -12 3 -15 5 -3 9 1 9 9 0 17 -3 19 -12 6z"/>
<path d="M740 3990 c-9 -6 -10 -10 -3 -10 6 0 15 5 18 10 8 12 4 12 -15 0z"/>
<path d="M715 3821 c-3 -5 -2 -12 3 -15 5 -3 9 1 9 9 0 17 -3 19 -12 6z"/>
<path d="M3206 3768 c3 -5 10 -6 15 -3 13 9 11 12 -6 12 -8 0 -12 -4 -9 -9z"/>
<path d="M3230 3720 c0 -5 7 -7 15 -4 8 4 15 8 15 10 0 2 -7 4 -15 4 -8 0 -15
-4 -15 -10z"/>
<path d="M711 3647 c-13 -21 -12 -21 5 -5 10 10 16 20 13 22 -3 3 -11 -5 -18
-17z"/>
<path d="M715 3501 c-3 -5 -2 -12 3 -15 5 -3 9 1 9 9 0 17 -3 19 -12 6z"/>
<path d="M711 3327 c-13 -21 -12 -21 5 -5 10 10 16 20 13 22 -3 3 -11 -5 -18
-17z"/>
<path d="M715 3180 c-3 -5 -1 -10 4 -10 6 0 11 5 11 10 0 6 -2 10 -4 10 -3 0
-8 -4 -11 -10z"/>
<path d="M3305 3060 c-3 -6 1 -7 9 -4 18 7 21 14 7 14 -6 0 -13 -4 -16 -10z"/>
<path d="M750 3040 c0 -5 5 -10 11 -10 5 0 7 5 4 10 -3 6 -8 10 -11 10 -2 0
-4 -4 -4 -10z"/>
<path d="M3283 2965 c0 -7 6 -11 14 -8 7 3 13 6 13 8 0 2 -6 5 -13 8 -8 3 -14
-1 -14 -8z"/>
<path d="M3275 2930 c3 -5 8 -10 11 -10 2 0 4 5 4 10 0 6 -5 10 -11 10 -5 0
-7 -4 -4 -10z"/>
<path d="M3245 2840 c-4 -6 -10 -8 -15 -5 -14 8 -5 -24 10 -38 12 -10 12 -9 2
5 -8 10 -9 19 -3 22 5 3 11 3 14 -1 2 -5 2 -3 1 4 -2 6 2 14 9 17 9 3 9 5 0 5
-6 1 -15 -4 -18 -9z"/>
<path d="M720 2740 c-9 -6 -10 -10 -3 -10 6 0 15 5 18 10 8 12 4 12 -15 0z"/>
<path d="M715 2700 c-3 -5 -1 -10 4 -10 6 0 11 5 11 10 0 6 -2 10 -4 10 -3 0
-8 -4 -11 -10z"/>
<path d="M2964 2459 c-9 -10 -15 -19 -13 -20 2 0 12 -2 21 -4 10 -2 16 2 15 8
-1 7 4 11 11 10 17 -4 15 14 -2 20 -8 3 -22 -3 -32 -14z m26 7 c0 -2 -8 -10
-17 -17 -16 -13 -17 -12 -4 4 13 16 21 21 21 13z"/>
<path d="M715 2431 c-3 -5 -2 -12 3 -15 5 -3 9 1 9 9 0 17 -3 19 -12 6z"/>
<path d="M2930 2399 c0 -5 5 -7 10 -4 6 3 10 8 10 11 0 2 -4 4 -10 4 -5 0 -10
-5 -10 -11z"/>
<path d="M740 2390 c-9 -6 -10 -10 -3 -10 6 0 15 5 18 10 8 12 4 12 -15 0z"/>
<path d="M2870 2350 c-9 -6 -10 -10 -3 -10 6 0 15 5 18 10 8 12 4 12 -15 0z"/>
<path d="M720 2160 c0 -5 5 -10 11 -10 5 0 7 5 4 10 -3 6 -8 10 -11 10 -2 0
-4 -4 -4 -10z"/>
<path d="M1828 2123 c6 -2 9 -10 6 -15 -4 -7 -2 -8 5 -4 13 9 5 26 -12 25 -9
0 -8 -2 1 -6z"/>
<path d="M2965 2060 c19 -21 30 -27 21 -11 -4 5 -3 11 1 14 5 2 2 2 -4 1 -7
-2 -13 1 -13 6 0 6 -5 10 -12 10 -6 0 -3 -9 7 -20z"/>
<path d="M715 1901 c-3 -5 -2 -12 3 -15 5 -3 9 1 9 9 0 17 -3 19 -12 6z"/>
<path d="M2055 1820 c-3 -5 1 -10 10 -10 9 0 13 5 10 10 -3 6 -8 10 -10 10 -2
0 -7 -4 -10 -10z"/>
<path d="M3120 1818 c-12 -8 -12 -9 2 -5 9 3 19 1 22 -6 3 -9 5 -9 5 0 1 18
-13 23 -29 11z"/>
<path d="M2060 1790 c-9 -6 -10 -10 -3 -10 6 0 15 5 18 10 8 12 4 12 -15 0z"/>
<path d="M1700 1780 c0 -5 5 -10 11 -10 5 0 7 5 4 10 -3 6 -8 10 -11 10 -2 0
-4 -4 -4 -10z"/>
<path d="M711 1727 c-13 -21 -12 -21 5 -5 10 10 16 20 13 22 -3 3 -11 -5 -18
-17z"/>
<path d="M2148 1664 c6 -12 10 -23 8 -25 -2 -2 7 -12 20 -22 l24 -18 -26 38
c-30 45 -41 56 -26 27z"/>
<path d="M715 1580 c-3 -5 -1 -10 4 -10 6 0 11 5 11 10 0 6 -2 10 -4 10 -3 0
-8 -4 -11 -10z"/>
<path d="M1700 1460 c0 -5 5 -10 11 -10 5 0 7 5 4 10 -3 6 -8 10 -11 10 -2 0
-4 -4 -4 -10z"/>
<path d="M725 1440 c-3 -5 -1 -10 4 -10 6 0 11 5 11 10 0 6 -2 10 -4 10 -3 0
-8 -4 -11 -10z"/>
<path d="M800 1170 c-9 -6 -10 -10 -3 -10 6 0 15 5 18 10 8 12 4 12 -15 0z"/>
<path d="M2449 1164 c6 -12 8 -24 5 -27 -3 -3 1 -4 10 -3 9 1 16 5 16 9 0 4
-2 6 -5 5 -2 -2 -11 6 -20 17 -16 20 -16 20 -6 -1z"/>
<path d="M1265 1130 c-3 -6 -11 -8 -16 -5 -5 4 -9 2 -9 -3 0 -6 7 -13 16 -16
8 -3 12 -2 9 3 -3 5 -1 12 4 16 5 3 14 -3 20 -12 6 -10 11 -13 11 -7 0 18 -27
37 -35 24z"/>
<path d="M1030 1121 c0 -10 19 -25 25 -20 1 2 -3 10 -11 17 -8 7 -14 8 -14 3z"/>
<path d="M2553 1116 c-3 -6 -3 -8 2 -4 4 4 13 3 20 -2 8 -7 12 -5 12 3 0 16
-25 18 -34 3z"/>
<path d="M2620 1121 c0 -5 7 -12 16 -15 14 -5 15 -4 4 9 -14 17 -20 19 -20 6z"/>
<path d="M2766 1118 c3 -4 9 -8 15 -8 5 0 9 4 9 8 0 5 -7 9 -15 9 -8 0 -12 -4
-9 -9z"/>
<path d="M2940 1121 c0 -5 7 -12 16 -15 14 -5 15 -4 4 9 -14 17 -20 19 -20 6z"/>
<path d="M988 1103 c6 -2 18 -2 25 0 6 3 1 5 -13 5 -14 0 -19 -2 -12 -5z"/>
<path d="M1076 1098 c3 -5 10 -6 15 -3 13 9 11 12 -6 12 -8 0 -12 -4 -9 -9z"/>
<path d="M1476 1098 c3 -5 10 -6 15 -3 13 9 11 12 -6 12 -8 0 -12 -4 -9 -9z"/>
</g>
</svg>
